<svg xmlns:svg="http://www.w3.org/2000/svg" xmlns="http://www.w3.org/2000/svg" height="800" width="800" version="1.1"><g transform="translate(0,242.84376)"><g transform="translate(-93.462433,-247.60907)"><path d="M405.9 16.5C192 64.8 57 278.4 105.3 492.3l0 0 0 0C153.5 706.2 367.1 841.2 581 793 795 744.7 930 531.1 881.7 317.2 833.5 103.3 619.8-31.7 405.9 16.5l0 0zm18.9 83.6c168.7-38 335.3 67.2 373.3 235.9a42.9 42.9 0 0 0 0 0C836.2 504.8 730.9 671.3 562.2 709.4 393.4 747.4 226.9 642.2 188.9 473.5a42.9 42.9 0 0 0 0 0C150.8 304.7 256 138.2 424.8 100.1Zm31.8 95.3c-87.3 19.7-136.1 89.5-120.7 157.7 13 57.8 58.7 85.6 105.6 93.1l54.5 9.7c36.8 5.9 58.5 7.5 62.8 26.5 4 17.8-7.1 31.3-39.1 38.5-29.5 6.7-68.7-1.3-102.1-17.6l-43.9 86.1c51.7 29 113.7 34.4 164.1 23.1C637.3 589.9 680.2 517 665 449.4 652.5 394.1 616.5 366 562.3 357.6l-52.8-8.1c-39.4-6-63.7-7.6-68-26.6-4-17.8 9.9-30.6 35.7-36.5 29.5-6.7 55.1-2.1 86.4 10.9l37.9-78.3c-45-27.9-99.3-33.8-144.8-23.5zm-165.8 233.4a21.1 21.1 0 0 0-16.5 25.3 21.1 21.1 0 1 0 41.1-9.3 21.1 21.1 0 0 0-24.6-16.1zm397.3-89.6a21.1 21.1 0 0 0-16.5 25.3 21.1 21.1 0 0 0 41.1-9.3 21.1 21.1 0 0 0-24.6-16.1z" style="baseline-shift:baseline;block-progression:tb;color-interpolation-filters:linearRGB;color-interpolation:sRGB;color-rendering:auto;direction:ltr;fill:#000;font-family:sans-serif;font-size:medium;image-rendering:auto;isolation:auto;letter-spacing:normal;line-height:normal;mix-blend-mode:normal;shape-rendering:auto;solid-color:#000000;solid-opacity:1;text-align:start;text-anchor:start;text-decoration-color:#000000;text-decoration-line:none;text-decoration-style:solid;text-decoration:none;text-indent:0;text-rendering:auto;text-transform:none;white-space:normal;word-spacing:normal;writing-mode:lr-tb"/></g></g></svg>